# xmcd
#
# Track frame offsets:
#	183
#	14440
#	44950
#	61578
#	76645
#	119055
#	134530
#
# Disc length: 3010 seconds
#
# Revision: 0
# Processed by: cddbd v1.4PL0 Copyright (c) Steve Scherf et al.
# Submitted via: dBpowerAMP V4.0
#
DISCID=5d0bc007
DTITLE=Frank Zappa - Live In Boston
DYEAR=1968
DGENRE=Blues
TTITLE0=Big Leg Emma
TTITLE1=Some Ballet Music
TTITLE2=Status Back Baby
TTITLE3=Valerie
TTITLE4=My Guitar
TTITLE5=The Uncle Meat
TTITLE6=King Kong (Medley)
EXTD=Frank Zappa\nLive In Boston 18 July 1968\n1. Big Leg Emma 2'23\n2. Some Ballet Music 5'36\n3. Status Back Baby 2'43\n4. Valerie 2'56\n5. My Guitar 8'47\n6. The Uncle Meat 3'26\n7. King King (Medley) 20'14\n\n\nThe Band:\nFrank Zappa - guitar and voca
EXTD=ls\nDon Preston - piano\nJim Sherwood - flute, clarinet, sax\nRoy Estrada - bass\nJimmy Carl Black - drums\nBunk Gardner - tenor and alto sax\nJan Under Wood - keyboards, r. guitar\nArie Tripp - lews pulsating rhythm\n\nBlack Panther\nBPCD 014\nMade 
EXTD=In Italy
EXTT0=
EXTT1=
EXTT2=
EXTT3=
EXTT4=
EXTT5=
EXTT6=
PLAYORDER=
